HIERARCHY
ROOT Hips
{
	OFFSET 0.000000 0.000000 0.000000
	CHANNELS 6 Xposition Yposition Zposition Zrotation Yrotation Xrotation 
	JOINT LHipJoint
	{
		OFFSET 0.000000 0.000000 0.000000
		CHANNELS 3 Zrotation Yrotation Xrotation
		JOINT LeftUpLeg
		{
			OFFSET 1.363060 -1.794630 0.839290
			CHANNELS 3 Zrotation Yrotation Xrotation
			JOINT LeftLeg
			{
				OFFSET 2.448110 -6.726130 0.000000
				CHANNELS 3 Zrotation Yrotation Xrotation
				JOINT LeftFoot
				{
					OFFSET 2.562200 -7.039590 0.000000
					CHANNELS 3 Zrotation Yrotation Xrotation
					JOINT LeftToeBase
					{
						OFFSET 0.157640 -0.433110 2.322550
						CHANNELS 3 Zrotation Yrotation Xrotation
						End Site
						{
							OFFSET 0.000000 0.000000 0.000000
						}
					}
				}
			}
		}
	}
	JOINT RHipJoint
	{
		OFFSET 0.000000 0.000000 0.000000
		CHANNELS 3 Zrotation Yrotation Xrotation
		JOINT RightUpLeg
		{
			OFFSET -1.305520 -1.794630 0.839290
			CHANNELS 3 Zrotation Yrotation Xrotation
			JOINT RightLeg
			{
				OFFSET -2.542530 -6.985550 0.000000
				CHANNELS 3 Zrotation Yrotation Xrotation
				JOINT RightFoot
				{
					OFFSET -2.568260 -7.056230 0.000000
					CHANNELS 3 Zrotation Yrotation Xrotation
					JOINT RightToeBase
					{
						OFFSET -0.164730 -0.452590 2.363150
						CHANNELS 3 Zrotation Yrotation Xrotation
						End Site
						{
							OFFSET 0.000000 0.000000 0.000000
						}
					}
				}
			}
		}
	}
	JOINT LowerBack
	{
		OFFSET 0.000000 0.000000 0.000000
		CHANNELS 3 Zrotation Yrotation Xrotation
		JOINT Spine
		{
			OFFSET 0.028270 2.035590 -0.193380
			CHANNELS 3 Zrotation Yrotation Xrotation
			JOINT Spine1
			{
				OFFSET 0.056720 2.048850 -0.042750
				CHANNELS 3 Zrotation Yrotation Xrotation
				JOINT Neck
				{
					OFFSET 0.000000 0.000000 0.000000
					CHANNELS 3 Zrotation Yrotation Xrotation
					JOINT Neck1
					{
						OFFSET -0.054170 1.746240 0.172020
						CHANNELS 3 Zrotation Yrotation Xrotation
						JOINT Head
						{
							OFFSET 0.104070 1.761360 -0.123970
							CHANNELS 3 Zrotation Yrotation Xrotation
							End Site
							{
								OFFSET 0.000000 0.000000 0.000000
							}
						}
					}
				}
				JOINT LeftShoulder
				{
					OFFSET 0.000000 0.000000 0.000000
					CHANNELS 3 Zrotation Yrotation Xrotation
					JOINT LeftArm
					{
						OFFSET 3.362410 1.200890 -0.311210
						CHANNELS 3 Zrotation Yrotation Xrotation
						JOINT LeftForeArm
						{
							OFFSET 4.983000 -0.000000 -0.000000
							CHANNELS 3 Zrotation Yrotation Xrotation
							JOINT LeftHand
							{
								OFFSET 3.483560 -0.000000 -0.000000
								CHANNELS 3 Zrotation Yrotation Xrotation
								JOINT LeftFingerBase
								{
									OFFSET 0.000000 0.000000 0.000000
									CHANNELS 3 Zrotation Yrotation Xrotation
									JOINT LeftHandIndex1
									{
										OFFSET 0.715260 -0.000000 -0.000000
										CHANNELS 3 Zrotation Yrotation Xrotation
										End Site
										{
											OFFSET 0.000000 0.000000 0.000000
										}
									}
								}
								JOINT LThumb
								{
									OFFSET 0.000000 0.000000 0.000000
									CHANNELS 3 Zrotation Yrotation Xrotation
									End Site
									{
										OFFSET 0.000000 0.000000 0.000000
									}
								}
							}
						}
					}
				}
				JOINT RightShoulder
				{
					OFFSET 0.000000 0.000000 0.000000
					CHANNELS 3 Zrotation Yrotation Xrotation
					JOINT RightArm
					{
						OFFSET -3.136600 1.374050 -0.404650
						CHANNELS 3 Zrotation Yrotation Xrotation
						JOINT RightForeArm
						{
							OFFSET -5.241900 -0.000000 -0.000000
							CHANNELS 3 Zrotation Yrotation Xrotation
							JOINT RightHand
							{
								OFFSET -3.444170 -0.000000 -0.000000
								CHANNELS 3 Zrotation Yrotation Xrotation
								JOINT RightFingerBase
								{
									OFFSET 0.000000 0.000000 0.000000
									CHANNELS 3 Zrotation Yrotation Xrotation
									JOINT RightHandIndex1
									{
										OFFSET -0.622530 -0.000000 -0.000000
										CHANNELS 3 Zrotation Yrotation Xrotation
										End Site
										{
											OFFSET 0.000000 0.000000 0.000000
										}
									}
								}
								JOINT RThumb
								{
									OFFSET 0.000000 0.000000 0.000000
									CHANNELS 3 Zrotation Yrotation Xrotation
									End Site
									{
										OFFSET 0.000000 0.000000 0.000000
									}
								}
							}
						}
					}
				}
			}
		}
	}
}
MOTION
Frames: 10
Frame Time: 0.008333
2.553090 17.198306 3.348565 -128.187788 -78.701762 171.310152 -9.256156 -2.479616 -2.062397 -10.580420 -1.474296 -51.350809 -2.354351 -1.193237 12.618468 2.257546 9.850874 -7.487823 0.679900 0.000000 -22.027300 6.076088 -0.063905 14.753195 -16.550760 17.090492 -121.491371 5.911867 4.954774 -7.932213 0.262872 -0.837303 3.952842 -2.056600 -0.000000 -69.001800 20.691416 -1.104945 -5.193636 3.877148 -2.687549 -4.333372 -6.227531 -2.710969 -0.598673 11.084706 -10.805284 -12.632596 -2.879788 -0.128133 -1.897638 0.000000 0.000000 0.000000 3.550548 3.694907 3.865947 -48.201946 2.347875 -30.972978 -0.758316 -64.394678 -0.117953 24.966469 -0.691980 -0.218376 -0.228875 0.289396 0.000000 0.000000 0.000000 0.000000 0.000000 0.000000 0.000000 12.610151 -7.064474 2.679240 52.588947 9.141891 -19.240494 0.600437 71.838096 -0.075939 -18.192872 10.054942 -1.701562 0.260122 -0.399862 0.000000 0.000000 0.000000 0.000000 0.000000 0.000000 0.000000 
2.554313 17.204568 3.341173 -130.684962 -78.309048 173.534923 -9.139645 -2.327488 -2.155722 -10.922443 -1.230694 -50.863268 -2.401623 -1.189044 12.319394 2.253202 9.872379 -7.456994 0.679699 0.000000 -21.819500 6.049695 0.160104 14.628450 -17.008360 17.107344 -120.745932 5.734947 4.755416 -7.311422 0.433825 -0.193962 4.173992 -1.826501 -0.000000 -68.946500 20.385017 -1.028326 -4.973824 3.777645 -2.579072 -4.264021 -6.263767 -2.600850 -0.556259 10.884209 -10.690237 -12.453333 -2.910220 -0.133528 -1.834731 0.000000 0.000000 0.000000 3.433495 3.810049 3.826662 -48.173467 2.189622 -30.982575 -0.761302 -64.032546 -0.115677 24.760532 -0.740708 -0.226680 -0.226786 0.286593 0.000000 0.000000 0.000000 0.000000 0.000000 0.000000 0.000000 12.547195 -6.967200 2.595666 53.188191 9.241974 -19.500365 0.579525 71.627318 -0.078492 -18.444009 9.964426 -1.709887 0.258004 -0.400054 0.000000 0.000000 0.000000 0.000000 0.000000 0.000000 0.000000 
2.553871 17.211530 3.333467 -132.843870 -77.983200 175.330714 -9.058808 -2.195203 -2.223763 -11.230612 -0.998858 -50.288299 -2.440138 -1.186655 12.031370 2.245858 9.884660 -7.432822 0.675600 -0.000000 -21.621001 6.000779 0.359859 14.459842 -17.234590 17.197755 -119.605031 5.564466 4.592528 -6.870287 0.584755 0.361249 4.451766 -1.622500 -0.000000 -68.852700 20.057469 -0.988527 -4.772820 3.677871 -2.508278 -4.196844 -6.291169 -2.528074 -0.500193 10.713958 -10.614093 -12.278358 -2.935747 -0.138529 -1.770860 0.000000 0.000000 0.000000 3.321368 3.940901 3.782112 -48.219484 2.086668 -30.983859 -0.766283 -63.856478 -0.113453 24.501779 -0.791492 -0.234972 -0.225309 0.284536 0.000000 0.000000 0.000000 0.000000 0.000000 0.000000 0.000000 12.495079 -6.920415 2.503656 53.746480 9.372936 -19.578923 0.562235 71.439098 -0.080398 -18.636106 9.904653 -1.717605 0.255968 -0.400001 0.000000 0.000000 0.000000 0.000000 0.000000 0.000000 0.000000 
2.552347 17.219155 3.325392 -134.692370 -77.737366 176.722291 -9.006381 -2.080067 -2.268432 -11.503624 -0.789987 -49.622773 -2.469083 -1.186501 11.754684 2.236578 9.894064 -7.413745 0.668500 0.000001 -21.428500 5.941056 0.536923 14.242575 -17.192533 17.368112 -118.070614 5.404964 4.466445 -6.615095 0.701136 0.772441 4.784504 -1.463800 0.000000 -68.800600 19.710298 -0.988121 -4.582764 3.578776 -2.476981 -4.130464 -6.310065 -2.494631 -0.432256 10.576533 -10.572808 -12.111051 -2.956715 -0.143094 -1.707489 0.000000 0.000000 0.000000 3.227056 4.093027 3.733593 -48.339202 2.025301 -30.991416 -0.772207 -63.853964 -0.111441 24.216960 -0.834797 -0.241252 -0.224507 0.283253 0.000000 0.000000 0.000000 0.000000 0.000000 0.000000 0.000000 12.456888 -6.919873 2.403464 54.258612 9.526019 -19.478863 0.548554 71.282133 -0.081616 -18.760161 9.881543 -1.725012 0.253916 -0.399784 0.000000 0.000000 0.000000 0.000000 0.000000 0.000000 0.000000 
2.549467 17.227191 3.317018 -136.239443 -77.576730 177.724450 -8.978695 -1.980000 -2.293007 -11.745521 -0.594287 -48.873799 -2.490776 -1.187755 11.496205 2.223204 9.888599 -7.401802 0.657100 -0.000001 -21.251300 5.879539 0.689117 13.977820 -16.853504 17.618346 -116.155425 5.261458 4.375613 -6.544018 0.772667 0.993566 5.172727 -1.367400 0.000000 -68.851600 19.350690 -1.023766 -4.399729 3.481887 -2.481782 -4.064980 -6.321441 -2.497262 -0.356405 10.467478 -10.564635 -11.951796 -2.973511 -0.147244 -1.645114 0.000000 0.000000 0.000000 3.153301 4.254181 3.682134 -48.527150 2.008927 -31.014749 -0.777744 -64.014796 -0.109741 23.931724 -0.858371 -0.243224 -0.224338 0.282586 0.000000 0.000000 0.000000 0.000000 0.000000 0.000000 0.000000 12.428568 -6.961563 2.297331 54.723223 9.681106 -19.214351 0.538488 71.165998 -0.082127 -18.808628 9.899390 -1.732314 0.251789 -0.399507 0.000000 0.000000 0.000000 0.000000 0.000000 0.000000 0.000000 
2.545809 17.235702 3.308229 -137.526930 -77.503434 178.372957 -8.970678 -1.892141 -2.303092 -11.961042 -0.407926 -48.034752 -2.506014 -1.189605 11.256139 2.205401 9.867421 -7.396474 0.641400 0.000000 -21.093500 5.823302 0.819350 13.660684 -16.195370 17.934074 -113.867485 5.136129 4.313285 -6.638216 0.796175 1.005258 5.615568 -1.341301 0.000000 -69.050300 18.975074 -1.093175 -4.210511 3.386183 -2.518907 -3.997831 -6.325999 -2.532359 -0.275276 10.384893 -10.586819 -11.802536 -2.986502 -0.150952 -1.584820 0.000000 0.000000 0.000000 3.108428 4.425501 3.628245 -48.774875 2.017605 -31.057514 -0.781848 -64.313380 -0.108471 23.667969 -0.857296 -0.240190 -0.224809 0.282551 0.000000 0.000000 0.000000 0.000000 0.000000 0.000000 0.000000 12.409853 -7.041095 2.186468 55.143731 9.826419 -18.807086 0.531583 71.096029 -0.081948 -18.777039 9.959118 -1.739208 0.249452 -0.399239 0.000000 0.000000 0.000000 0.000000 0.000000 0.000000 0.000000 
2.540467 17.244080 3.298660 -138.580316 -77.518843 178.710990 -8.979080 -1.810357 -2.298313 -12.165938 -0.220953 -47.132115 -2.520016 -1.190870 11.044130 2.180010 9.809913 -7.402057 0.619600 0.000000 -20.959500 5.781249 0.925412 13.304878 -15.239248 18.274624 -111.262912 5.026925 4.269521 -6.850691 0.768520 0.792345 6.091861 -1.392900 0.000000 -69.369000 18.584729 -1.189003 -4.028686 3.291165 -2.582132 -3.933927 -6.325946 -2.593777 -0.194844 10.320067 -10.632938 -11.657499 -2.996696 -0.154419 -1.524708 0.000000 0.000000 0.000000 3.088032 4.573678 3.573338 -49.064761 2.088449 -31.117933 -0.783773 -64.746456 -0.107601 23.443051 -0.824200 -0.230950 -0.225871 0.282815 0.000000 0.000000 0.000000 0.000000 0.000000 0.000000 0.000000 12.392935 -7.148097 2.074237 55.527778 9.923432 -18.285169 0.527552 71.085069 -0.081096 -18.662792 10.058972 -1.745095 0.246911 -0.399035 0.000000 0.000000 0.000000 0.000000 0.000000 0.000000 0.000000 
2.534696 17.252815 3.288035 -139.468376 -77.617494 178.790300 -8.999300 -1.733652 -2.289220 -12.359943 -0.033813 -46.130014 -2.530329 -1.191437 10.845098 2.149357 9.733539 -7.411363 0.593900 -0.000001 -20.851100 5.755057 1.016354 12.894094 -13.973771 18.607328 -108.329929 4.932938 4.233936 -7.150422 0.699114 0.389499 6.598219 -1.511900 0.000001 -69.791600 18.162193 -1.310344 -3.821720 3.192557 -2.666661 -3.864733 -6.321800 -2.676871 -0.113356 10.276968 -10.705177 -11.523789 -3.004097 -0.157465 -1.467856 0.000000 0.000000 0.000000 3.106825 4.730067 3.515963 -49.387321 2.147695 -31.189753 -0.783103 -65.261410 -0.107279 23.268089 -0.769751 -0.218008 -0.227588 0.283719 0.000000 0.000000 0.000000 0.000000 0.000000 0.000000 0.000000 12.386456 -7.285636 1.959951 55.881661 9.986669 -17.680724 0.525336 71.126281 -0.079665 -18.470499 10.194846 -1.749278 0.243947 -0.398890 0.000000 0.000000 0.000000 0.000000 0.000000 0.000000 0.000000 
2.527170 17.261042 3.275801 -140.208155 -77.801721 178.658390 -9.029127 -1.655112 -2.269201 -12.559403 0.154769 -45.076498 -2.542667 -1.190688 10.670845 2.110712 9.616872 -7.428729 0.563100 0.000000 -20.767700 5.752980 1.088878 12.454380 -12.474709 18.863032 -105.164800 4.846981 4.195648 -7.471766 0.588832 -0.192731 7.094688 -1.697000 -0.000000 -70.194800 17.710633 -1.447761 -3.622828 3.090227 -2.765983 -3.799860 -6.316013 -2.775081 -0.036794 10.244251 -10.796141 -11.392008 -3.009602 -0.160373 -1.410776 0.000000 0.000000 0.000000 3.152457 4.849553 3.457551 -49.717455 2.258713 -31.262864 -0.779897 -65.866551 -0.107354 23.146448 -0.691594 -0.200862 -0.229904 0.284815 0.000000 0.000000 0.000000 0.000000 0.000000 0.000000 0.000000 12.378018 -7.441607 1.847123 56.217219 9.970331 -17.026825 0.524517 71.232205 -0.077710 -18.205244 10.359726 -1.750655 0.240681 -0.398816 0.000000 0.000000 0.000000 0.000000 0.000000 0.000000 0.000000 
2.518785 17.269160 3.261588 -140.868856 -78.061840 178.375949 -9.065157 -1.574193 -2.247183 -12.765165 0.345476 -43.943638 -2.555298 -1.189001 10.502342 2.066205 9.475642 -7.445646 0.529800 -0.000001 -20.710800 5.774970 1.151869 11.976892 -10.783751 18.997329 -101.785486 4.763540 4.144372 -7.767046 0.448804 -0.900033 7.558584 -1.929100 -0.000000 -70.502700 17.214243 -1.598205 -3.407762 2.980127 -2.874076 -3.732497 -6.309362 -2.882402 0.037591 10.225613 -10.910562 -11.267918 -3.013058 -0.162988 -1.355927 0.000000 0.000000 0.000000 3.233782 4.959923 3.396022 -50.043227 2.357607 -31.327341 -0.774241 -66.514203 -0.107876 23.076500 -0.607244 -0.183213 -0.232829 0.286405 0.000000 0.000000 0.000000 0.000000 0.000000 0.000000 0.000000 12.375706 -7.621550 1.734981 56.541677 9.893317 -16.357046 0.524051 71.392559 -0.075371 -17.880826 10.546145 -1.749030 0.237007 -0.398777 0.000000 0.000000 0.000000 0.000000 0.000000 0.000000 0.000000 
